<svg display="none" xmlns="http://www.w3.org/2000/svg">
    <symbol viewBox="0 0 48 48" id="discord">
        <path fill-rule="evenodd" clip-rule="evenodd" d="M0 24C0 10.7452 10.7452 0 24 0C37.2548 0 48 10.7452 48 24C48 37.2548 37.2548 48 24 48C10.7452 48 0 37.2548 0 24ZM33.8949 10.4H14.9051C13.3038 10.4 12 11.688 12 13.284V32.212C12 33.808 13.3038 35.096 14.9051 35.096H30.9755L30.2245 32.506L32.0384 34.172L33.7531 35.74L36.8 38.4V13.284C36.8 11.688 35.4962 10.4 33.8949 10.4Z" />
        <path fill-rule="evenodd" clip-rule="evenodd" d="M28.4247 28.684C28.4247 28.684 27.9145 28.082 27.4894 27.55C29.3458 27.032 30.0544 25.884 30.0544 25.884C29.4734 26.262 28.9207 26.528 28.4247 26.71C27.7161 27.004 27.0359 27.2 26.3698 27.312C25.0094 27.564 23.7623 27.494 22.6994 27.298C21.8917 27.144 21.1973 26.92 20.6162 26.696C20.2903 26.57 19.936 26.416 19.5817 26.22C19.5392 26.192 19.4967 26.178 19.4542 26.15C19.4258 26.136 19.4117 26.122 19.3975 26.108C19.1424 25.968 19.0007 25.87 19.0007 25.87C19.0007 25.87 19.6809 26.99 21.4807 27.522C21.0555 28.054 20.5312 28.684 20.5312 28.684C17.3993 28.586 16.2089 26.556 16.2089 26.556C16.2089 22.048 18.2496 18.394 18.2496 18.394C20.2903 16.882 22.2318 16.924 22.2318 16.924L22.3735 17.092C19.8226 17.82 18.6464 18.926 18.6464 18.926C18.6464 18.926 18.9582 18.758 19.4825 18.52C20.9989 17.862 22.2034 17.68 22.6994 17.638C22.7845 17.624 22.8553 17.61 22.9403 17.61C23.8048 17.498 24.7826 17.47 25.803 17.582C27.1493 17.736 28.5947 18.128 30.0686 18.926C30.0686 18.926 28.949 17.876 26.5399 17.148L26.7383 16.924C26.7383 16.924 28.6798 16.882 30.7205 18.394C30.7205 18.394 32.7611 22.048 32.7611 26.556C32.7611 26.556 31.5566 28.586 28.4247 28.684ZM22.2341 22.4C21.4327 22.4 20.8 23.1207 20.8 24C20.8 24.8793 21.4467 25.6 22.2341 25.6C23.0355 25.6 23.6682 24.8793 23.6682 24C23.6822 23.1207 23.0355 22.4 22.2341 22.4ZM27.3659 22.4C26.5645 22.4 25.9318 23.1207 25.9318 24C25.9318 24.8793 26.5786 25.6 27.3659 25.6C28.1673 25.6 28.8 24.8793 28.8 24C28.8 23.1207 28.1673 22.4 27.3659 22.4Z" />
    </symbol>
    <symbol viewBox="0 0 48 48" id="vk">
        <path fill-rule="evenodd" clip-rule="evenodd" d="M0 24C0 10.7452 10.7452 0 24 0C37.2548 0 48 10.7452 48 24C48 37.2548 37.2548 48 24 48C10.7452 48 0 37.2548 0 24ZM25.2555 31.8761C25.2555 31.8761 25.7175 31.8257 25.9541 31.5762C26.1707 31.3476 26.1632 30.9162 26.1632 30.9162C26.1632 30.9162 26.1344 28.9018 27.0873 28.6043C28.0264 28.3118 29.2321 30.5524 30.5118 31.414C31.4784 32.0654 32.2121 31.9228 32.2121 31.9228L35.6316 31.8761C35.6316 31.8761 37.4196 31.7679 36.5719 30.3877C36.5018 30.2746 36.0773 29.3664 34.0302 27.5006C31.8853 25.5477 32.1733 25.8635 34.7551 22.4849C36.3278 20.4274 36.9563 19.1713 36.7597 18.6343C36.5732 18.1205 35.4162 18.2569 35.4162 18.2569L31.5673 18.2803C31.5673 18.2803 31.2818 18.2422 31.0702 18.3663C30.8636 18.488 30.7296 18.7719 30.7296 18.7719C30.7296 18.7719 30.1211 20.3635 29.3085 21.7179C27.5944 24.5743 26.9095 24.7254 26.629 24.5485C25.9767 24.1343 26.1394 22.8868 26.1394 22.0006C26.1394 19.2316 26.5677 18.0775 25.3068 17.7788C24.8886 17.6793 24.5806 17.6141 23.51 17.6031C22.1365 17.5896 20.9745 17.608 20.3159 17.9239C19.8777 18.134 19.5396 18.6035 19.7462 18.6306C20.0004 18.6637 20.5764 18.783 20.8819 19.191C21.2763 19.7183 21.2625 20.9006 21.2625 20.9006C21.2625 20.9006 21.4892 24.1601 20.7329 24.5644C20.2145 24.8422 19.5033 24.2756 17.9745 21.6835C17.192 20.3562 16.601 18.8887 16.601 18.8887C16.601 18.8887 16.487 18.6146 16.2829 18.4671C16.0363 18.2889 15.6919 18.2336 15.6919 18.2336L12.0346 18.2569C12.0346 18.2569 11.4849 18.2717 11.2833 18.5064C11.1043 18.7141 11.2695 19.1455 11.2695 19.1455C11.2695 19.1455 14.1331 25.7222 17.376 29.037C20.3497 32.0752 23.7254 31.8761 23.7254 31.8761H25.2555Z" />
    </symbol>
    <symbol viewBox="0 0 32 32" id="telegram">
        <path d="M16 0.5c-8.563 0-15.5 6.938-15.5 15.5s6.938 15.5 15.5 15.5c8.563 0 15.5-6.938 15.5-15.5s-6.938-15.5-15.5-15.5zM23.613 11.119l-2.544 11.988c-0.188 0.85-0.694 1.056-1.4 0.656l-3.875-2.856-1.869 1.8c-0.206 0.206-0.381 0.381-0.781 0.381l0.275-3.944 7.181-6.488c0.313-0.275-0.069-0.431-0.482-0.156l-8.875 5.587-3.825-1.194c-0.831-0.262-0.85-0.831 0.175-1.231l14.944-5.763c0.694-0.25 1.3 0.169 1.075 1.219z" />
    </symbol>
    <symbol viewBox="0 0 12 12" id="github">
        <path fill="currentColor" d="M6 0a6 6 0 110 12A6 6 0 016 0zm0 .98C3.243.98 1 3.223 1 6a5.02 5.02 0 003.437 4.77.594.594 0 00.045.005c.203.01.279-.129.279-.25l-.007-.854c-1.39.303-1.684-.674-1.684-.674-.227-.58-.555-.734-.555-.734-.454-.312.034-.306.034-.306.365.026.604.288.708.43l.058.088c.446.767 1.17.546 1.455.418.046-.325.174-.546.317-.672-1.11-.127-2.277-.558-2.277-2.482 0-.548.195-.996.515-1.348l-.03-.085c-.064-.203-.152-.658.079-1.244l.04-.007c.124-.016.548-.013 1.335.522A4.77 4.77 0 016 3.408c.425.002.853.058 1.252.17.955-.65 1.374-.516 1.374-.516.272.692.1 1.202.05 1.33.32.35.513.799.513 1.347 0 1.93-1.169 2.354-2.283 2.478.18.155.34.462.34.93l-.006 1.378c0 .13.085.282.323.245A5.02 5.02 0 0011 6C11 3.223 8.757.98 6 .98z" />
    </symbol>
</svg>